<?xml version="1.0" encoding="UTF-8"?>
<!DOCTYPE svg PUBLIC "-//W3C//DTD SVG 1.1//EN" "http://www.w3.org/Graphics/SVG/1.1/DTD/svg11.dtd">
<svg xmlns="http://www.w3.org/2000/svg" version="1.1" width="200px" height="200px" style="shape-rendering:geometricPrecision; text-rendering:geometricPrecision; image-rendering:optimizeQuality; fill-rule:evenodd; clip-rule:evenodd" xmlns:xlink="http://www.w3.org/1999/xlink">
<g><path style="opacity:1" fill="#010043" d="M -0.5,-0.5 C 42.8333,-0.5 86.1667,-0.5 129.5,-0.5C 122.929,2.12391 116.929,5.79057 111.5,10.5C 89.4883,7.42255 70.9883,14.0892 56,30.5C 52.1456,35.5387 49.9789,41.2054 49.5,47.5C 47.4816,48.6225 45.4816,48.6225 43.5,47.5C 42.6786,44.5535 42.1786,41.5535 42,38.5C 41.5,36.6667 40.3333,35.5 38.5,35C 41.4264,31.0237 40.7598,27.6904 36.5,25C 37.3452,23.4419 36.6785,22.4419 34.5,22C 27.2169,22.225 19.8836,22.5584 12.5,23C 10.773,24.743 10.1064,26.5764 10.5,28.5C 9.67504,29.3857 8.67504,29.719 7.5,29.5C 4.83333,29.5 2.16667,29.5 -0.5,29.5C -0.5,19.5 -0.5,9.5 -0.5,-0.5 Z"/></g>
<g><path style="opacity:1" fill="#020142" d="M 144.5,-0.5 C 162.833,-0.5 181.167,-0.5 199.5,-0.5C 199.5,29.5 199.5,59.5 199.5,89.5C 198.005,89.5852 197.005,88.9185 196.5,87.5C 197.754,85.3569 197.754,83.3569 196.5,81.5C 200.418,64.172 196.918,48.5053 186,34.5C 181.625,29.9571 177.125,25.6238 172.5,21.5C 177.357,15.811 182.023,9.97763 186.5,4C 180.135,3.48727 173.801,3.8206 167.5,5C 158.496,7.00257 149.496,8.83591 140.5,10.5C 141.551,6.73128 142.884,3.06461 144.5,-0.5 Z"/></g>
<g><path style="opacity:1" fill="#5b5d89" d="M 129.5,-0.5 C 134.5,-0.5 139.5,-0.5 144.5,-0.5C 142.884,3.06461 141.551,6.73128 140.5,10.5C 149.496,8.83591 158.496,7.00257 167.5,5C 173.801,3.8206 180.135,3.48727 186.5,4C 182.023,9.97763 177.357,15.811 172.5,21.5C 177.125,25.6238 181.625,29.9571 186,34.5C 196.918,48.5053 200.418,64.172 196.5,81.5C 195.962,83.1172 195.629,84.7839 195.5,86.5C 189.788,86.3027 184.288,87.3027 179,89.5C 178.5,89.1667 178,88.8333 177.5,88.5C 179.546,85.7677 180.38,82.7677 180,79.5C 178.883,77.8757 177.383,76.8757 175.5,76.5C 170.608,77.6164 165.941,79.283 161.5,81.5C 160.417,81.4606 159.417,81.1272 158.5,80.5C 156.444,82.593 153.944,83.9263 151,84.5C 150.247,79.3553 151.247,78.6886 154,82.5C 155.582,80.3763 155.749,78.2096 154.5,76C 156.787,73.9517 156.954,71.7851 155,69.5C 154.586,69.9574 154.086,70.2907 153.5,70.5C 152.526,68.2573 152.192,65.924 152.5,63.5C 153.833,63.5 155.167,63.5 156.5,63.5C 156.343,64.8734 156.51,66.2068 157,67.5C 158.726,66.4238 160.559,66.2571 162.5,67C 164.666,68.9933 166.999,70.8267 169.5,72.5C 170.696,72.1543 170.696,71.6543 169.5,71C 171.473,70.5045 173.473,70.3379 175.5,70.5C 175.5,68.5 175.5,66.5 175.5,64.5C 173.143,64.6633 170.81,64.4966 168.5,64C 170.577,63.8078 172.577,63.3078 174.5,62.5C 174.333,62.1667 174.167,61.8333 174,61.5C 169.5,57.1667 165,52.8333 160.5,48.5C 154.872,47.5046 149.206,47.1712 143.5,47.5C 143.762,46.0222 143.429,44.6888 142.5,43.5C 141.618,44.7598 140.618,45.9264 139.5,47C 140.308,47.3076 140.975,47.8076 141.5,48.5C 140.009,49.2436 138.509,49.9103 137,50.5C 134.513,48.4334 132.013,46.4334 129.5,44.5C 130.833,43.8333 132.167,43.1667 133.5,42.5C 131.305,41.2309 129.139,41.2309 127,42.5C 126.53,41.4232 126.697,40.4232 127.5,39.5C 131.215,39.3203 134.882,39.6536 138.5,40.5C 140.516,40.4841 141.516,39.4841 141.5,37.5C 142.795,36.9694 143.462,35.6361 143.5,33.5C 138.195,34.4419 132.861,34.6086 127.5,34C 131.521,34.3307 134.187,32.6641 135.5,29C 133.307,24.5451 130.307,23.7118 126.5,26.5C 124.902,26.3903 123.235,26.057 121.5,25.5C 119.236,26.8692 116.903,27.8692 114.5,28.5C 112.418,28.528 110.584,27.8613 109,26.5C 107.212,28.0231 107.045,29.6898 108.5,31.5C 107.624,31.3691 106.957,31.7025 106.5,32.5C 107.167,33.5 107.833,34.5 108.5,35.5C 107.019,36.4803 105.685,37.647 104.5,39C 105.964,40.864 106.964,43.0306 107.5,45.5C 115.073,48.4563 121.407,53.123 126.5,59.5C 127.484,62.4281 127.817,65.4281 127.5,68.5C 126.167,68.5 124.833,68.5 123.5,68.5C 123.5,66.8333 123.5,65.1667 123.5,63.5C 122.127,63.3433 120.793,63.51 119.5,64C 120.337,65.0113 120.67,66.1779 120.5,67.5C 117.868,65.2764 115.035,63.943 112,63.5C 111.51,64.7932 111.343,66.1266 111.5,67.5C 112.833,67.5 114.167,67.5 115.5,67.5C 115.434,71.753 113.934,72.4197 111,69.5C 108.696,71.0685 106.196,72.2352 103.5,73C 105.592,75.8284 107.759,75.9951 110,73.5C 111.011,74.3366 112.178,74.67 113.5,74.5C 111.925,76.1137 111.259,78.1137 111.5,80.5C 114.5,80.8333 115.833,79.5 115.5,76.5C 116.167,77.1667 116.833,77.8333 117.5,78.5C 116.316,79.6879 116.316,80.8545 117.5,82C 119.495,82.6128 121.162,82.1128 122.5,80.5C 123.1,81.8999 124.1,82.8999 125.5,83.5C 124.167,83.5 122.833,83.5 121.5,83.5C 121.5,84.8333 121.5,86.1667 121.5,87.5C 123.167,87.5 124.833,87.5 126.5,87.5C 126.5,86.1667 126.5,84.8333 126.5,83.5C 127.483,87.2984 127.817,91.2984 127.5,95.5C 129.706,96.5841 128.373,96.7508 123.5,96C 123,95.5 122.5,95 122,94.5C 121.667,96.1667 121.333,97.8333 121,99.5C 118.43,100.009 116.097,101.009 114,102.5C 112.736,105.79 111.57,109.124 110.5,112.5C 109.817,112.863 109.15,113.196 108.5,113.5C 108.737,112.209 108.404,111.209 107.5,110.5C 108.46,107.235 108.46,103.902 107.5,100.5C 108.159,98.8621 108.826,97.1955 109.5,95.5C 108.68,93.8888 107.346,93.2222 105.5,93.5C 104.833,93.5 104.167,93.5 103.5,93.5C 104.66,92.735 105.66,91.735 106.5,90.5C 104.764,87.8953 102.931,87.8953 101,90.5C 100.53,91.5768 100.697,92.5768 101.5,93.5C 100.833,93.5 100.167,93.5 99.5,93.5C 98.8549,92.1882 97.8549,91.1882 96.5,90.5C 95.4763,91.8532 94.143,92.5198 92.5,92.5C 92.8333,90.5 93.1667,88.5 93.5,86.5C 95.1667,86.5 96.8333,86.5 98.5,86.5C 98.3184,84.4086 98.6518,82.4086 99.5,80.5C 98.277,79.3861 96.9437,79.2195 95.5,80C 93.4569,83.2534 91.2902,86.4201 89,89.5C 88.2165,86.2397 88.3832,83.0731 89.5,80C 88.552,79.5172 87.552,79.3505 86.5,79.5C 81.3394,71.8443 81.1727,63.8443 86,55.5C 88.5429,53.6457 91.3763,52.4791 94.5,52C 95.8333,51 95.8333,50 94.5,49C 89.8918,48.3829 86.0585,49.8829 83,53.5C 74.8712,52.7961 66.7045,51.9627 58.5,51C 55.198,50.3392 52.198,49.1725 49.5,47.5C 49.9789,41.2054 52.1456,35.5387 56,30.5C 70.9883,14.0892 89.4883,7.42255 111.5,10.5C 116.929,5.79057 122.929,2.12391 129.5,-0.5 Z"/></g>
<g><path style="opacity:1" fill="#030338" d="M 72.5,23.5 C 78.6554,25.1635 84.6554,27.3302 90.5,30C 93.0643,31.0623 94.731,32.8956 95.5,35.5C 95.3918,36.4419 95.0585,37.2753 94.5,38C 85.8129,40.1718 77.1462,42.3384 68.5,44.5C 68.33,43.1779 68.6634,42.0113 69.5,41C 76.3655,38.5336 83.3655,36.5336 90.5,35C 84.7663,31.8012 78.7663,29.1345 72.5,27C 71.3157,25.8545 71.3157,24.6879 72.5,23.5 Z"/></g>
<g><path style="opacity:1" fill="#03043c" d="M 114.5,28.5 C 115.793,29.1582 117.293,29.4915 119,29.5C 123.156,28.7244 127.323,28.0578 131.5,27.5C 131.67,28.8221 131.337,29.9887 130.5,31C 123.211,34.0895 115.878,34.2562 108.5,31.5C 107.045,29.6898 107.212,28.0231 109,26.5C 110.584,27.8613 112.418,28.528 114.5,28.5 Z"/></g>
<g><path style="opacity:1" fill="#01022f" d="M 86.5,41.5 C 89.4841,41.7868 90.8174,43.4535 90.5,46.5C 86.745,46.4369 85.4116,44.7702 86.5,41.5 Z"/></g>
<g><path style="opacity:1" fill="#02033e" d="M 141.5,37.5 C 141.516,39.4841 140.516,40.4841 138.5,40.5C 134.882,39.6536 131.215,39.3203 127.5,39.5C 123.78,39.5642 120.114,40.0642 116.5,41C 122.375,45.4381 128.708,49.1047 135.5,52C 137,53.5 138.5,55 140,56.5C 140.699,58.0738 140.365,59.4071 139,60.5C 131.753,54.7892 123.919,49.9559 115.5,46C 113.552,44.561 112.219,42.7277 111.5,40.5C 111.818,39.3527 112.484,38.5194 113.5,38C 122.834,34.9642 132.167,34.7975 141.5,37.5 Z"/></g>
<g><path style="opacity:1" fill="#374044" d="M -0.5,29.5 C 2.16667,29.5 4.83333,29.5 7.5,29.5C 7.43185,40.9438 12.7652,48.7771 23.5,53C 30.6039,55.2649 36.4372,53.4315 41,47.5C 45.0267,50.5963 49.5267,52.763 54.5,54C 63.0812,55.7452 71.7478,56.9119 80.5,57.5C 79.1733,62.4199 78.1733,67.4199 77.5,72.5C 63.0971,67.0165 48.4304,66.1831 33.5,70C 27.3476,75.3049 20.3476,79.1382 12.5,81.5C 10.1568,76.6213 8.82347,71.4546 8.5,66C 9.4003,60.438 10.2336,54.938 11,49.5C 7.23277,48.6318 3.39944,47.9651 -0.5,47.5C -0.5,41.5 -0.5,35.5 -0.5,29.5 Z"/></g>
<g><path style="opacity:1" fill="#5a5c8b" d="M 141.5,37.5 C 132.167,34.7975 122.834,34.9642 113.5,38C 112.484,38.5194 111.818,39.3527 111.5,40.5C 112.219,42.7277 113.552,44.561 115.5,46C 123.919,49.9559 131.753,54.7892 139,60.5C 140.365,59.4071 140.699,58.0738 140,56.5C 138.5,55 137,53.5 135.5,52C 128.708,49.1047 122.375,45.4381 116.5,41C 120.114,40.0642 123.78,39.5642 127.5,39.5C 126.697,40.4232 126.53,41.4232 127,42.5C 129.139,41.2309 131.305,41.2309 133.5,42.5C 132.167,43.1667 130.833,43.8333 129.5,44.5C 132.013,46.4334 134.513,48.4334 137,50.5C 138.509,49.9103 140.009,49.2436 141.5,48.5C 140.975,47.8076 140.308,47.3076 139.5,47C 140.618,45.9264 141.618,44.7598 142.5,43.5C 143.429,44.6888 143.762,46.0222 143.5,47.5C 149.206,47.1712 154.872,47.5046 160.5,48.5C 165,52.8333 169.5,57.1667 174,61.5C 174.167,61.8333 174.333,62.1667 174.5,62.5C 172.577,63.3078 170.577,63.8078 168.5,64C 170.81,64.4966 173.143,64.6633 175.5,64.5C 175.5,66.5 175.5,68.5 175.5,70.5C 173.473,70.3379 171.473,70.5045 169.5,71C 170.696,71.6543 170.696,72.1543 169.5,72.5C 166.999,70.8267 164.666,68.9933 162.5,67C 160.559,66.2571 158.726,66.4238 157,67.5C 156.51,66.2068 156.343,64.8734 156.5,63.5C 155.167,63.5 153.833,63.5 152.5,63.5C 152.192,65.924 152.526,68.2573 153.5,70.5C 154.086,70.2907 154.586,69.9574 155,69.5C 156.954,71.7851 156.787,73.9517 154.5,76C 155.749,78.2096 155.582,80.3763 154,82.5C 151.247,78.6886 150.247,79.3553 151,84.5C 153.944,83.9263 156.444,82.593 158.5,80.5C 159.417,81.1272 160.417,81.4606 161.5,81.5C 155.78,85.0393 150.447,89.206 145.5,94C 124.333,97.8333 111.833,110.333 108,131.5C 107.501,136.823 107.334,142.156 107.5,147.5C 106.71,146.391 106.21,145.058 106,143.5C 105.617,144.056 105.117,144.389 104.5,144.5C 104.343,143.127 104.51,141.793 105,140.5C 105.763,143.063 106.263,143.063 106.5,140.5C 105.127,136.895 103.461,133.395 101.5,130C 102.167,129.667 102.833,129.333 103.5,129C 102.167,128.333 102.167,127.667 103.5,127C 104.793,126.51 106.127,126.343 107.5,126.5C 108.412,122.429 108.412,118.429 107.5,114.5C 107.5,113.833 107.833,113.5 108.5,113.5C 109.15,113.196 109.817,112.863 110.5,112.5C 111.57,109.124 112.736,105.79 114,102.5C 116.097,101.009 118.43,100.009 121,99.5C 121.333,97.8333 121.667,96.1667 122,94.5C 122.5,95 123,95.5 123.5,96C 128.373,96.7508 129.706,96.5841 127.5,95.5C 127.817,91.2984 127.483,87.2984 126.5,83.5C 126.167,83.5 125.833,83.5 125.5,83.5C 124.1,82.8999 123.1,81.8999 122.5,80.5C 121.83,77.4969 120.163,76.8303 117.5,78.5C 116.833,77.8333 116.167,77.1667 115.5,76.5C 115.167,75.5 114.5,74.8333 113.5,74.5C 112.178,74.67 111.011,74.3366 110,73.5C 107.759,75.9951 105.592,75.8284 103.5,73C 106.196,72.2352 108.696,71.0685 111,69.5C 113.934,72.4197 115.434,71.753 115.5,67.5C 114.167,67.5 112.833,67.5 111.5,67.5C 111.343,66.1266 111.51,64.7932 112,63.5C 115.035,63.943 117.868,65.2764 120.5,67.5C 120.67,66.1779 120.337,65.0113 119.5,64C 120.793,63.51 122.127,63.3433 123.5,63.5C 123.5,65.1667 123.5,66.8333 123.5,68.5C 124.833,68.5 126.167,68.5 127.5,68.5C 127.817,65.4281 127.484,62.4281 126.5,59.5C 121.407,53.123 115.073,48.4563 107.5,45.5C 106.964,43.0306 105.964,40.864 104.5,39C 105.685,37.647 107.019,36.4803 108.5,35.5C 107.833,34.5 107.167,33.5 106.5,32.5C 106.957,31.7025 107.624,31.3691 108.5,31.5C 115.878,34.2562 123.211,34.0895 130.5,31C 131.337,29.9887 131.67,28.8221 131.5,27.5C 127.323,28.0578 123.156,28.7244 119,29.5C 117.293,29.4915 115.793,29.1582 114.5,28.5C 116.903,27.8692 119.236,26.8692 121.5,25.5C 123.235,26.057 124.902,26.3903 126.5,26.5C 130.307,23.7118 133.307,24.5451 135.5,29C 134.187,32.6641 131.521,34.3307 127.5,34C 132.861,34.6086 138.195,34.4419 143.5,33.5C 143.462,35.6361 142.795,36.9694 141.5,37.5 Z"/></g>
<g><path style="opacity:1" fill="#04043d" d="M 49.5,47.5 C 52.198,49.1725 55.198,50.3392 58.5,51C 66.7045,51.9627 74.8712,52.7961 83,53.5C 86.0585,49.8829 89.8918,48.3829 94.5,49C 95.8333,50 95.8333,51 94.5,52C 91.3763,52.4791 88.5429,53.6457 86,55.5C 81.1727,63.8443 81.3394,71.8443 86.5,79.5C 86.7778,81.3464 86.1112,82.6798 84.5,83.5C 82.6729,81.5 81.0062,79.3333 79.5,77C 73.3388,74.7095 67.0055,73.2095 60.5,72.5C 59.2921,71.7659 57.9587,71.4326 56.5,71.5C 53.1016,71.1796 49.7683,71.513 46.5,72.5C 47.681,76.0716 48.3476,79.7383 48.5,83.5C 42.3659,83.3688 36.8659,81.0354 32,76.5C 22.2315,83.144 11.3982,86.4774 -0.5,86.5C -0.5,85.1667 -0.5,83.8333 -0.5,82.5C 2.16667,82.5 4.83333,82.5 7.5,82.5C 6.23367,77.0706 5.23367,71.5706 4.5,66C 5.22279,61.4978 5.88945,56.9978 6.5,52.5C 4.13895,52.3259 1.80562,51.9926 -0.5,51.5C -0.5,50.1667 -0.5,48.8333 -0.5,47.5C 3.39944,47.9651 7.23277,48.6318 11,49.5C 10.2336,54.938 9.4003,60.438 8.5,66C 8.82347,71.4546 10.1568,76.6213 12.5,81.5C 20.3476,79.1382 27.3476,75.3049 33.5,70C 48.4304,66.1831 63.0971,67.0165 77.5,72.5C 78.1733,67.4199 79.1733,62.4199 80.5,57.5C 71.7478,56.9119 63.0812,55.7452 54.5,54C 49.5267,52.763 45.0267,50.5963 41,47.5C 36.4372,53.4315 30.6039,55.2649 23.5,53C 12.7652,48.7771 7.43185,40.9438 7.5,29.5C 8.67504,29.719 9.67504,29.3857 10.5,28.5C 10.1064,26.5764 10.773,24.743 12.5,23C 19.8836,22.5584 27.2169,22.225 34.5,22C 36.6785,22.4419 37.3452,23.4419 36.5,25C 40.7598,27.6904 41.4264,31.0237 38.5,35C 40.3333,35.5 41.5,36.6667 42,38.5C 42.1786,41.5535 42.6786,44.5535 43.5,47.5C 45.4816,48.6225 47.4816,48.6225 49.5,47.5 Z"/></g>
<g><path style="opacity:1" fill="#595b8b" d="M 18.5,23.5 C 31.7191,22.0469 38.3857,28.0469 38.5,41.5C 37.821,47.0103 34.6543,50.0103 29,50.5C 21.4296,48.5595 15.7629,44.2262 12,37.5C 10.4356,30.9479 12.6022,26.2813 18.5,23.5 Z"/></g>
<g><path style="opacity:1" fill="#154b80" d="M 130.5,60.5 C 132.252,60.4176 133.252,61.2509 133.5,63C 130.999,68.5638 132.666,72.0638 138.5,73.5C 140.829,72.2292 141.995,70.2292 142,67.5C 143.011,66.6634 144.178,66.33 145.5,66.5C 145.918,75.6008 141.918,78.7675 133.5,76C 128.074,71.7035 127.074,66.5368 130.5,60.5 Z"/></g>
<g><path style="opacity:1" fill="#594d72" d="M -0.5,51.5 C 1.80562,51.9926 4.13895,52.3259 6.5,52.5C 5.88945,56.9978 5.22279,61.4978 4.5,66C 5.23367,71.5706 6.23367,77.0706 7.5,82.5C 4.83333,82.5 2.16667,82.5 -0.5,82.5C -0.5,72.1667 -0.5,61.8333 -0.5,51.5 Z"/></g>
<g><path style="opacity:1" fill="#17497f" d="M 56.5,71.5 C 57.9587,71.4326 59.2921,71.7659 60.5,72.5C 60.3527,77.5408 62.5194,79.2074 67,77.5C 68.1882,78.5634 68.6882,79.8967 68.5,81.5C 60.064,83.742 56.064,80.4086 56.5,71.5 Z"/></g>
<g><path style="opacity:1" fill="#f2f9fc" d="M 113.5,74.5 C 114.5,74.8333 115.167,75.5 115.5,76.5C 115.833,79.5 114.5,80.8333 111.5,80.5C 111.259,78.1137 111.925,76.1137 113.5,74.5 Z"/></g>
<g><path style="opacity:1" fill="#eef6fe" d="M 105.5,82.5 C 102.76,80.415 102.927,78.7484 106,77.5C 110.812,79.851 110.645,81.5176 105.5,82.5 Z"/></g>
<g><path style="opacity:1" fill="#f2f7fb" d="M 122.5,80.5 C 121.162,82.1128 119.495,82.6128 117.5,82C 116.316,80.8545 116.316,79.6879 117.5,78.5C 120.163,76.8303 121.83,77.4969 122.5,80.5 Z"/></g>
<g><path style="opacity:1" fill="#eff5fd" d="M 105.5,82.5 C 105.5,83.8333 105.5,85.1667 105.5,86.5C 97.7003,84.7252 97.7003,83.3919 105.5,82.5 Z"/></g>
<g><path style="opacity:1" fill="#5c5b8b" d="M 56.5,71.5 C 56.064,80.4086 60.064,83.742 68.5,81.5C 68.6882,79.8967 68.1882,78.5634 67,77.5C 62.5194,79.2074 60.3527,77.5408 60.5,72.5C 67.0055,73.2095 73.3388,74.7095 79.5,77C 81.0062,79.3333 82.6729,81.5 84.5,83.5C 86.1112,82.6798 86.7778,81.3464 86.5,79.5C 87.552,79.3505 88.552,79.5172 89.5,80C 88.3832,83.0731 88.2165,86.2397 89,89.5C 91.2902,86.4201 93.4569,83.2534 95.5,80C 96.9437,79.2195 98.277,79.3861 99.5,80.5C 98.6518,82.4086 98.3184,84.4086 98.5,86.5C 96.8333,86.5 95.1667,86.5 93.5,86.5C 93.1667,88.5 92.8333,90.5 92.5,92.5C 94.143,92.5198 95.4763,91.8532 96.5,90.5C 97.8549,91.1882 98.8549,92.1882 99.5,93.5C 96.4082,94.5442 93.4082,95.8775 90.5,97.5C 86.8333,96.1667 83.1667,94.8333 79.5,93.5C 75.6715,95.9853 74.6715,99.3187 76.5,103.5C 75.1825,103.179 73.8492,102.846 72.5,102.5C 67.4215,105.214 62.2549,105.547 57,103.5C 55.018,103.99 53.3513,104.99 52,106.5C 50.1294,105.003 49.1294,103.003 49,100.5C 41.2207,96.942 41.7207,95.1086 50.5,95C 48.6341,94.0153 46.6341,93.5153 44.5,93.5C 40.1921,94.201 35.8588,94.5343 31.5,94.5C 31.719,95.675 31.3857,96.675 30.5,97.5C 28.8169,96.4079 26.9836,95.7413 25,95.5C 22.0835,97.2037 18.9169,98.2037 15.5,98.5C 15.4292,101.139 14.4292,103.306 12.5,105C 12.8333,105.5 13.1667,106 13.5,106.5C 19.3885,108.815 25.3885,109.482 31.5,108.5C 31.2203,114.9 29.7203,121.233 27,127.5C 22.8005,129.033 19.9672,131.866 18.5,136C 21.8273,136.61 25.1606,137.11 28.5,137.5C 28.238,138.978 28.5713,140.311 29.5,141.5C 32.1524,137.971 35.1524,137.638 38.5,140.5C 41.0278,139.502 41.0278,138.669 38.5,138C 41.0335,135.848 43.7002,135.348 46.5,136.5C 46.5,139.167 46.5,141.833 46.5,144.5C 44.2018,144.032 41.5352,144.032 38.5,144.5C 35.31,142.43 31.9767,142.097 28.5,143.5C 27.2408,141.656 25.2408,140.323 22.5,139.5C 21.8076,140.025 21.3076,140.692 21,141.5C 20.7508,140.376 20.2508,139.376 19.5,138.5C 16.5193,142.576 15.1859,142.243 15.5,137.5C 19.8724,129.923 23.8724,122.09 27.5,114C 25.9905,110.84 24.1572,110.673 22,113.5C 13.3564,110.441 5.85636,105.774 -0.5,99.5C -0.5,95.1667 -0.5,90.8333 -0.5,86.5C 11.3982,86.4774 22.2315,83.144 32,76.5C 36.8659,81.0354 42.3659,83.3688 48.5,83.5C 48.3476,79.7383 47.681,76.0716 46.5,72.5C 49.7683,71.513 53.1016,71.1796 56.5,71.5 Z"/></g>
<g><path style="opacity:1" fill="#07023b" d="M 55.5,83.5 C 59.8182,86.6626 64.4849,89.3293 69.5,91.5C 70.3857,92.325 70.719,93.325 70.5,94.5C 62.0503,94.639 57.0503,90.9724 55.5,83.5 Z"/></g>
<g><path style="opacity:1" fill="#f1f8f9" d="M 125.5,83.5 C 125.833,83.5 126.167,83.5 126.5,83.5C 126.5,84.8333 126.5,86.1667 126.5,87.5C 124.833,87.5 123.167,87.5 121.5,87.5C 121.5,86.1667 121.5,84.8333 121.5,83.5C 122.833,83.5 124.167,83.5 125.5,83.5 Z"/></g>
<g><path style="opacity:1" fill="#1c4b7f" d="M 134.5,81.5 C 135.552,81.3505 136.552,81.5172 137.5,82C 137.165,83.7772 137.999,85.2772 140,86.5C 141.434,86.0696 142.601,85.2362 143.5,84C 144.793,83.51 146.127,83.3433 147.5,83.5C 145.221,90.7228 141.054,92.0561 135,87.5C 133.204,85.5983 133.037,83.5983 134.5,81.5 Z"/></g>
<g><path style="opacity:1" fill="#fdfdfd" d="M 199.5,104.5 C 199.5,136.167 199.5,167.833 199.5,199.5C 164.833,199.5 130.167,199.5 95.5,199.5C 95.5,199.167 95.5,198.833 95.5,198.5C 98.1975,194.948 100.531,191.114 102.5,187C 102.043,186.586 101.709,186.086 101.5,185.5C 94.1933,184.236 86.86,183.236 79.5,182.5C 76.8712,179.369 74.0379,176.369 71,173.5C 69.698,170.625 68.8647,167.625 68.5,164.5C 84.8489,166.745 100.516,165.245 115.5,160C 107.191,138.909 111.191,120.575 127.5,105C 133.117,101.683 139.117,99.3497 145.5,98C 151.221,93.2794 157.221,88.946 163.5,85C 167.653,82.9208 171.986,81.4208 176.5,80.5C 173.91,85.3489 171.576,90.3489 169.5,95.5C 175.605,94.5226 181.605,93.0226 187.5,91C 190.817,90.5017 194.15,90.335 197.5,90.5C 197.511,94.8098 195.677,98.1431 192,100.5C 191.517,101.448 191.351,102.448 191.5,103.5C 194.206,103.575 196.873,103.908 199.5,104.5 Z"/></g>
<g><path style="opacity:1" fill="#f3fafc" d="M 120.5,89.5 C 124.126,88.8607 125.959,90.194 126,93.5C 124.098,94.3861 122.265,94.0528 120.5,92.5C 119.209,91.4728 119.209,90.4728 120.5,89.5 Z"/></g>
<g><path style="opacity:1" fill="#f0f8fb" d="M 103.5,93.5 C 102.833,93.5 102.167,93.5 101.5,93.5C 100.697,92.5768 100.53,91.5768 101,90.5C 102.931,87.8953 104.764,87.8953 106.5,90.5C 105.66,91.735 104.66,92.735 103.5,93.5 Z"/></g>
<g><path style="opacity:1" fill="#5c5c85" d="M 76.5,103.5 C 77.5719,105.571 79.2385,106.905 81.5,107.5C 84.7,106.469 87.5333,104.802 90,102.5C 92.7361,104.752 95.5695,106.752 98.5,108.5C 98.5,109.833 98.5,111.167 98.5,112.5C 100.38,112.771 101.713,112.104 102.5,110.5C 103.167,110.5 103.833,110.5 104.5,110.5C 103.766,111.708 103.433,113.041 103.5,114.5C 104.833,114.5 106.167,114.5 107.5,114.5C 108.412,118.429 108.412,122.429 107.5,126.5C 106.127,126.343 104.793,126.51 103.5,127C 102.167,127.667 102.167,128.333 103.5,129C 102.833,129.333 102.167,129.667 101.5,130C 103.461,133.395 105.127,136.895 106.5,140.5C 106.263,143.063 105.763,143.063 105,140.5C 104.51,141.793 104.343,143.127 104.5,144.5C 95.2703,145.53 86.2703,145.364 77.5,144C 76.3816,142.926 75.3816,141.76 74.5,140.5C 73.8333,141.167 73.1667,141.833 72.5,142.5C 71.5832,141.873 70.5832,141.539 69.5,141.5C 70.1243,137.987 69.1243,135.153 66.5,133C 59.4284,132.38 52.7617,133.546 46.5,136.5C 43.7002,135.348 41.0335,135.848 38.5,138C 41.0278,138.669 41.0278,139.502 38.5,140.5C 35.1524,137.638 32.1524,137.971 29.5,141.5C 28.5713,140.311 28.238,138.978 28.5,137.5C 25.1606,137.11 21.8273,136.61 18.5,136C 19.9672,131.866 22.8005,129.033 27,127.5C 29.7203,121.233 31.2203,114.9 31.5,108.5C 25.3885,109.482 19.3885,108.815 13.5,106.5C 13.1667,106 12.8333,105.5 12.5,105C 14.4292,103.306 15.4292,101.139 15.5,98.5C 18.9169,98.2037 22.0835,97.2037 25,95.5C 26.9836,95.7413 28.8169,96.4079 30.5,97.5C 31.3857,96.675 31.719,95.675 31.5,94.5C 35.8588,94.5343 40.1921,94.201 44.5,93.5C 46.6341,93.5153 48.6341,94.0153 50.5,95C 41.7207,95.1086 41.2207,96.942 49,100.5C 49.1294,103.003 50.1294,105.003 52,106.5C 53.3513,104.99 55.018,103.99 57,103.5C 62.2549,105.547 67.4215,105.214 72.5,102.5C 73.8492,102.846 75.1825,103.179 76.5,103.5 Z"/></g>
<g><path style="opacity:1" fill="#f0f6fe" d="M 117.5,93.5 C 119.484,93.484 120.484,94.484 120.5,96.5C 119.167,100.5 117.833,100.5 116.5,96.5C 116.685,95.4163 117.018,94.4163 117.5,93.5 Z"/></g>
<g><path style="opacity:1" fill="#03013d" d="M 99.5,93.5 C 100.167,93.5 100.833,93.5 101.5,93.5C 102.167,93.5 102.833,93.5 103.5,93.5C 104.167,93.5 104.833,93.5 105.5,93.5C 105.481,95.0603 105.148,96.5603 104.5,98C 104.748,99.7491 105.748,100.582 107.5,100.5C 108.46,103.902 108.46,107.235 107.5,110.5C 106.5,110.5 105.5,110.5 104.5,110.5C 103.833,110.5 103.167,110.5 102.5,110.5C 102.163,107.664 100.829,106.998 98.5,108.5C 95.5695,106.752 92.7361,104.752 90,102.5C 87.5333,104.802 84.7,106.469 81.5,107.5C 79.2385,106.905 77.5719,105.571 76.5,103.5C 74.6715,99.3187 75.6715,95.9853 79.5,93.5C 83.1667,94.8333 86.8333,96.1667 90.5,97.5C 93.4082,95.8775 96.4082,94.5442 99.5,93.5 Z"/></g>
<g><path style="opacity:1" fill="#f0f8fd" d="M 111.5,95.5 C 116.003,96.015 116.503,98.015 113,101.5C 110.388,99.9631 109.888,97.9631 111.5,95.5 Z"/></g>
<g><path style="opacity:1" fill="#f0f7fc" d="M 105.5,93.5 C 107.346,93.2222 108.68,93.8888 109.5,95.5C 108.826,97.1955 108.159,98.8621 107.5,100.5C 105.748,100.582 104.748,99.7491 104.5,98C 105.148,96.5603 105.481,95.0603 105.5,93.5 Z"/></g>
<g><path style="opacity:1" fill="#05023e" d="M 58.5,95.5 C 62.8333,96.5 65.5,99.1667 66.5,103.5C 63.8602,103.046 61.5268,101.879 59.5,100C 57.4523,98.7741 57.119,97.2741 58.5,95.5 Z"/></g>
<g><path style="opacity:1" fill="#060436" d="M 196.5,81.5 C 197.754,83.3569 197.754,85.3569 196.5,87.5C 197.005,88.9185 198.005,89.5852 199.5,89.5C 199.5,94.5 199.5,99.5 199.5,104.5C 196.873,103.908 194.206,103.575 191.5,103.5C 191.351,102.448 191.517,101.448 192,100.5C 195.677,98.1431 197.511,94.8098 197.5,90.5C 194.15,90.335 190.817,90.5017 187.5,91C 181.605,93.0226 175.605,94.5226 169.5,95.5C 171.576,90.3489 173.91,85.3489 176.5,80.5C 171.986,81.4208 167.653,82.9208 163.5,85C 157.221,88.946 151.221,93.2794 145.5,98C 139.117,99.3497 133.117,101.683 127.5,105C 111.191,120.575 107.191,138.909 115.5,160C 100.516,165.245 84.8489,166.745 68.5,164.5C 67.8826,164.611 67.3826,164.944 67,165.5C 65.652,158.239 65.152,150.906 65.5,143.5C 65.5,141.167 65.5,138.833 65.5,136.5C 60.8228,136.835 56.1561,137.335 51.5,138C 50.5939,139.699 50.2606,141.533 50.5,143.5C 52.0906,145.681 53.4239,148.014 54.5,150.5C 54.8333,150.5 55.1667,150.5 55.5,150.5C 55.7047,158.867 55.3713,167.2 54.5,175.5C 53.2508,178.09 51.5841,180.424 49.5,182.5C 48.9889,178.97 49.6556,175.804 51.5,173C 51.3416,169.712 51.3416,166.212 51.5,162.5C 51.8168,158.298 51.4834,154.298 50.5,150.5C 49.5514,148.223 48.2181,146.223 46.5,144.5C 46.5,141.833 46.5,139.167 46.5,136.5C 52.7617,133.546 59.4284,132.38 66.5,133C 69.1243,135.153 70.1243,137.987 69.5,141.5C 69.3713,143.216 69.038,144.883 68.5,146.5C 67.5139,150.97 67.1805,155.637 67.5,160.5C 81.0305,162.39 94.3638,161.557 107.5,158C 108.756,157.583 109.423,156.75 109.5,155.5C 109.198,152.627 108.531,149.961 107.5,147.5C 107.334,142.156 107.501,136.823 108,131.5C 111.833,110.333 124.333,97.8333 145.5,94C 150.447,89.206 155.78,85.0393 161.5,81.5C 165.941,79.283 170.608,77.6164 175.5,76.5C 177.383,76.8757 178.883,77.8757 180,79.5C 180.38,82.7677 179.546,85.7677 177.5,88.5C 178,88.8333 178.5,89.1667 179,89.5C 184.288,87.3027 189.788,86.3027 195.5,86.5C 195.629,84.7839 195.962,83.1172 196.5,81.5 Z"/></g>
<g><path style="opacity:1" fill="#f6fafb" d="M 102.5,110.5 C 101.713,112.104 100.38,112.771 98.5,112.5C 98.5,111.167 98.5,109.833 98.5,108.5C 100.829,106.998 102.163,107.664 102.5,110.5 Z"/></g>
<g><path style="opacity:1" fill="#f4f7fe" d="M 104.5,110.5 C 105.5,110.5 106.5,110.5 107.5,110.5C 108.404,111.209 108.737,112.209 108.5,113.5C 107.833,113.5 107.5,113.833 107.5,114.5C 106.167,114.5 104.833,114.5 103.5,114.5C 103.433,113.041 103.766,111.708 104.5,110.5 Z"/></g>
<g><path style="opacity:1" fill="#f5f9fe" d="M 92.5,112.5 C 94.9775,112.051 96.9775,112.717 98.5,114.5C 97.3073,116.384 95.6406,116.884 93.5,116C 92.6634,114.989 92.33,113.822 92.5,112.5 Z"/></g>
<g><path style="opacity:1" fill="#f5fafa" d="M 103.5,115.5 C 106.297,115.967 107.631,117.633 107.5,120.5C 103.745,120.437 102.412,118.77 103.5,115.5 Z"/></g>
<g><path style="opacity:1" fill="#f6fafe" d="M 95.5,117.5 C 100.63,118.456 100.797,120.123 96,122.5C 94.2116,120.977 94.0449,119.31 95.5,117.5 Z"/></g>
<g><path style="opacity:1" fill="#0b0433" d="M 130.5,115.5 C 134.846,115.334 139.179,115.501 143.5,116C 146.525,116.133 149.192,117.133 151.5,119C 147.297,121.46 143.13,124.626 139,128.5C 134.659,127.133 133.159,124.3 134.5,120C 131.905,120.131 129.405,119.964 127,119.5C 126.333,118.833 126.333,118.167 127,117.5C 128.302,116.915 129.469,116.249 130.5,115.5 Z"/></g>
<g><path style="opacity:1" fill="#f3f7fd" d="M 100.5,120.5 C 102.59,120.45 103.923,121.45 104.5,123.5C 103.68,125.111 102.346,125.778 100.5,125.5C 100.5,123.833 100.5,122.167 100.5,120.5 Z"/></g>
<g><path style="opacity:1" fill="#f7f9f9" d="M 138.5,119.5 C 143.933,118.813 144.599,119.979 140.5,123C 139.552,123.483 138.552,123.649 137.5,123.5C 137.433,122.041 137.766,120.708 138.5,119.5 Z"/></g>
<g><path style="opacity:1" fill="#0b0919" d="M 128.5,130.5 C 127.404,125.622 128.404,125.288 131.5,129.5C 130.675,130.386 129.675,130.719 128.5,130.5 Z"/></g>
<g><path style="opacity:1" fill="#0c0637" d="M 165.5,119.5 C 170.532,120.088 175.532,120.921 180.5,122C 183.62,122.585 186.287,123.919 188.5,126C 188.387,127.28 187.72,128.113 186.5,128.5C 184.922,127.36 183.256,126.86 181.5,127C 174.997,136.367 170.83,135.533 169,124.5C 167.644,123.62 166.144,123.286 164.5,123.5C 164.433,122.041 164.766,120.708 165.5,119.5 Z"/></g>
<g><path style="opacity:1" fill="#f5f8fc" d="M 173.5,124.5 C 175.103,124.312 176.437,124.812 177.5,126C 174.146,131.099 172.813,130.599 173.5,124.5 Z"/></g>
<g><path style="opacity:1" fill="#0c0623" d="M 146.5,128.5 C 147.922,128.709 149.255,129.209 150.5,130C 151.641,130.741 151.641,131.575 150.5,132.5C 146.477,133.794 145.144,132.461 146.5,128.5 Z"/></g>
<g><path style="opacity:1" fill="#080717" d="M 128.5,130.5 C 130.794,132.041 130.794,133.375 128.5,134.5C 124.587,133.02 124.587,131.686 128.5,130.5 Z"/></g>
<g><path style="opacity:1" fill="#0a0627" d="M 177.5,133.5 C 178.5,133.5 179.5,133.5 180.5,133.5C 180.5,134.5 180.5,135.5 180.5,136.5C 176.5,136.833 176.5,137.167 180.5,137.5C 180.5,138.5 180.5,139.5 180.5,140.5C 177.143,140.894 174.81,139.561 173.5,136.5C 174.901,135.479 176.235,134.479 177.5,133.5 Z"/></g>
<g><path style="opacity:1" fill="#090438" d="M 144.5,135.5 C 149.811,136.331 155.145,137.165 160.5,138C 161.291,142.903 159.291,146.403 154.5,148.5C 149.737,146.017 146.071,142.35 143.5,137.5C 143.863,136.817 144.196,136.15 144.5,135.5 Z"/></g>
<g><path style="opacity:1" fill="#94ad68" d="M 65.5,143.5 C 65.1667,143.5 64.8333,143.5 64.5,143.5C 64.5,141.833 64.5,140.167 64.5,138.5C 60.5,138.5 56.5,138.5 52.5,138.5C 51.5985,142.241 52.9319,144.241 56.5,144.5C 56.5,145.5 56.5,146.5 56.5,147.5C 60.44,148.234 61.7734,146.901 60.5,143.5C 61.5,143.5 62.5,143.5 63.5,143.5C 63.0766,144.265 62.7432,145.098 62.5,146C 63.3792,153.14 64.0458,160.306 64.5,167.5C 63.7784,167.082 63.2784,166.416 63,165.5C 62.5006,159.843 62.3339,154.176 62.5,148.5C 59.6122,147.99 57.2789,148.656 55.5,150.5C 55.1667,150.5 54.8333,150.5 54.5,150.5C 54.8851,147.11 53.5517,144.777 50.5,143.5C 50.2606,141.533 50.5939,139.699 51.5,138C 56.1561,137.335 60.8228,136.835 65.5,136.5C 65.5,138.833 65.5,141.167 65.5,143.5 Z"/></g>
<g><path style="opacity:1" fill="#92b53c" d="M 64.5,143.5 C 64.1667,143.5 63.8333,143.5 63.5,143.5C 62.5,143.5 61.5,143.5 60.5,143.5C 59.0413,143.433 57.7079,143.766 56.5,144.5C 52.9319,144.241 51.5985,142.241 52.5,138.5C 56.5,138.5 60.5,138.5 64.5,138.5C 64.5,140.167 64.5,141.833 64.5,143.5 Z"/></g>
<g><path style="opacity:1" fill="#f5f7fc" d="M 150.5,141.5 C 152.435,140.291 154.435,140.458 156.5,142C 155.667,142.833 154.833,143.667 154,144.5C 152.961,143.29 151.794,142.29 150.5,141.5 Z"/></g>
<g><path style="opacity:1" fill="#030d19" d="M 60.5,143.5 C 61.7734,146.901 60.44,148.234 56.5,147.5C 56.5,146.5 56.5,145.5 56.5,144.5C 57.7079,143.766 59.0413,143.433 60.5,143.5 Z"/></g>
<g><path style="opacity:1" fill="#434177" d="M 15.5,137.5 C 15.1859,142.243 16.5193,142.576 19.5,138.5C 20.2508,139.376 20.7508,140.376 21,141.5C 21.3076,140.692 21.8076,140.025 22.5,139.5C 25.2408,140.323 27.2408,141.656 28.5,143.5C 31.9767,142.097 35.31,142.43 38.5,144.5C 41.5352,144.032 44.2018,144.032 46.5,144.5C 48.2181,146.223 49.5514,148.223 50.5,150.5C 44.3554,151.49 38.0221,151.823 31.5,151.5C 31.6399,149.876 30.9733,148.71 29.5,148C 24.7617,147.488 20.0951,146.655 15.5,145.5C 13.0586,146.779 11.3919,146.113 10.5,143.5C 12.177,141.46 13.8437,139.46 15.5,137.5 Z"/></g>
<g><path style="opacity:1" fill="#031317" d="M 50.5,143.5 C 53.5517,144.777 54.8851,147.11 54.5,150.5C 53.4239,148.014 52.0906,145.681 50.5,143.5 Z"/></g>
<g><path style="opacity:1" fill="#4b497a" d="M 104.5,144.5 C 105.117,144.389 105.617,144.056 106,143.5C 106.21,145.058 106.71,146.391 107.5,147.5C 108.531,149.961 109.198,152.627 109.5,155.5C 107.047,154.183 104.38,153.35 101.5,153C 92.1764,152.256 82.8431,151.756 73.5,151.5C 73.5391,149.641 72.7058,148.308 71,147.5C 70.3162,148.784 70.4829,149.951 71.5,151C 70.8333,151.667 70.1667,151.667 69.5,151C 69.0879,149.436 68.7546,147.936 68.5,146.5C 69.038,144.883 69.3713,143.216 69.5,141.5C 70.5832,141.539 71.5832,141.873 72.5,142.5C 73.1667,141.833 73.8333,141.167 74.5,140.5C 75.3816,141.76 76.3816,142.926 77.5,144C 86.2703,145.364 95.2703,145.53 104.5,144.5 Z"/></g>
<g><path style="opacity:1" fill="#070629" d="M 63.5,143.5 C 63.8333,143.5 64.1667,143.5 64.5,143.5C 64.8333,143.5 65.1667,143.5 65.5,143.5C 65.152,150.906 65.652,158.239 67,165.5C 67.3826,164.944 67.8826,164.611 68.5,164.5C 68.8647,167.625 69.698,170.625 71,173.5C 74.0379,176.369 76.8712,179.369 79.5,182.5C 78.6236,182.369 77.9569,182.702 77.5,183.5C 79.4856,185.395 79.8189,187.395 78.5,189.5C 76.4347,184.051 72.9347,179.718 68,176.5C 66.7043,173.429 65.5377,170.429 64.5,167.5C 64.0458,160.306 63.3792,153.14 62.5,146C 62.7432,145.098 63.0766,144.265 63.5,143.5 Z"/></g>
<g><path style="opacity:1" fill="#2a2761" d="M 10.5,143.5 C 11.3919,146.113 13.0586,146.779 15.5,145.5C 20.0951,146.655 24.7617,147.488 29.5,148C 30.9733,148.71 31.6399,149.876 31.5,151.5C 38.0221,151.823 44.3554,151.49 50.5,150.5C 51.4834,154.298 51.8168,158.298 51.5,162.5C 49.7231,162.786 48.0564,163.453 46.5,164.5C 35.0497,163.512 23.883,161.179 13,157.5C 5.82417,160.894 2.82417,158.561 4,150.5C 6.40034,148.271 8.567,145.937 10.5,143.5 Z"/></g>
<g><path style="opacity:1" fill="#383669" d="M 68.5,146.5 C 68.7546,147.936 69.0879,149.436 69.5,151C 70.1667,151.667 70.8333,151.667 71.5,151C 70.4829,149.951 70.3162,148.784 71,147.5C 72.7058,148.308 73.5391,149.641 73.5,151.5C 82.8431,151.756 92.1764,152.256 101.5,153C 104.38,153.35 107.047,154.183 109.5,155.5C 109.423,156.75 108.756,157.583 107.5,158C 94.3638,161.557 81.0305,162.39 67.5,160.5C 67.1805,155.637 67.5139,150.97 68.5,146.5 Z"/></g>
<g><path style="opacity:1" fill="#09022e" d="M 117.5,159.5 C 122.922,159.843 126.255,162.51 127.5,167.5C 124.484,167.159 121.818,165.993 119.5,164C 117.963,162.89 117.297,161.39 117.5,159.5 Z"/></g>
<g><path style="opacity:1" fill="#060546" d="M -0.5,99.5 C 5.85636,105.774 13.3564,110.441 22,113.5C 24.1572,110.673 25.9905,110.84 27.5,114C 23.8724,122.09 19.8724,129.923 15.5,137.5C 13.8437,139.46 12.177,141.46 10.5,143.5C 8.567,145.937 6.40034,148.271 4,150.5C 2.82417,158.561 5.82417,160.894 13,157.5C 23.883,161.179 35.0497,163.512 46.5,164.5C 48.0564,163.453 49.7231,162.786 51.5,162.5C 51.3416,166.212 51.3416,169.712 51.5,173C 49.6556,175.804 48.9889,178.97 49.5,182.5C 45.7989,187.569 44.1322,193.235 44.5,199.5C 29.5,199.5 14.5,199.5 -0.5,199.5C -0.5,166.167 -0.5,132.833 -0.5,99.5 Z"/></g>
<g><path style="opacity:1" fill="#04023c" d="M 146.5,163.5 C 148.053,165.385 150.053,166.385 152.5,166.5C 155.187,166.336 157.854,166.503 160.5,167C 161.444,169.719 161.777,172.552 161.5,175.5C 160.167,175.5 158.833,175.5 157.5,175.5C 155.716,175.107 154.05,174.441 152.5,173.5C 152.586,172.504 152.252,171.671 151.5,171C 148.833,170.667 146.167,170.333 143.5,170C 141.604,168.192 141.104,166.025 142,163.5C 143.414,162.587 144.914,162.587 146.5,163.5 Z"/></g>
<g><path style="opacity:1" fill="#04041a" d="M 157.5,175.5 C 158.833,175.5 160.167,175.5 161.5,175.5C 161.777,172.552 161.444,169.719 160.5,167C 157.854,166.503 155.187,166.336 152.5,166.5C 155.342,165.001 158.342,164.667 161.5,165.5C 162.426,169.094 162.759,172.76 162.5,176.5C 160.585,176.784 158.919,176.451 157.5,175.5 Z"/></g>
<g><path style="opacity:1" fill="#080526" d="M 146.5,163.5 C 144.914,162.587 143.414,162.587 142,163.5C 141.104,166.025 141.604,168.192 143.5,170C 146.167,170.333 148.833,170.667 151.5,171C 152.252,171.671 152.586,172.504 152.5,173.5C 151.469,172.645 150.303,171.978 149,171.5C 140.929,173.401 138.263,170.401 141,162.5C 143.235,161.02 145.068,161.353 146.5,163.5 Z"/></g>
<g><path style="opacity:1" fill="#91b538" d="M 53.5,199.5 C 50.5,199.5 47.5,199.5 44.5,199.5C 44.1322,193.235 45.7989,187.569 49.5,182.5C 51.5841,180.424 53.2508,178.09 54.5,175.5C 56.4698,167.231 57.1364,158.565 56.5,149.5C 58.451,149.227 59.951,149.893 61,151.5C 61.3574,157.947 61.5241,164.28 61.5,170.5C 64.8252,175.652 68.3252,180.652 72,185.5C 73.2051,186.071 74.3717,186.738 75.5,187.5C 72.0999,188.814 68.5999,189.814 65,190.5C 64.0546,190.095 63.3879,189.428 63,188.5C 62.5,190.333 61.3333,191.5 59.5,192C 56.8323,192.567 54.1656,193.067 51.5,193.5C 51.6036,195.703 52.2702,197.703 53.5,199.5 Z"/></g>
<g><path style="opacity:1" fill="#080331" d="M 79.5,182.5 C 86.86,183.236 94.1933,184.236 101.5,185.5C 101.709,186.086 102.043,186.586 102.5,187C 100.531,191.114 98.1975,194.948 95.5,198.5C 96.6151,194.973 97.9484,191.473 99.5,188C 99.1667,187.5 98.8333,187 98.5,186.5C 94.4536,188.525 90.1202,188.692 85.5,187C 86.6721,186.581 87.6721,185.915 88.5,185C 85.008,185.07 82.008,184.237 79.5,182.5 Z"/></g>
<g><path style="opacity:1" fill="#050242" d="M 79.5,182.5 C 82.008,184.237 85.008,185.07 88.5,185C 87.6721,185.915 86.6721,186.581 85.5,187C 90.1202,188.692 94.4536,188.525 98.5,186.5C 98.8333,187 99.1667,187.5 99.5,188C 97.9484,191.473 96.6151,194.973 95.5,198.5C 95.5,198.833 95.5,199.167 95.5,199.5C 91.1667,199.5 86.8333,199.5 82.5,199.5C 81.6993,197.958 81.366,196.292 81.5,194.5C 81.5386,193.244 81.0386,192.244 80,191.5C 78.2739,192.576 76.4406,192.743 74.5,192C 76.437,191.878 77.7703,191.045 78.5,189.5C 79.8189,187.395 79.4856,185.395 77.5,183.5C 77.9569,182.702 78.6236,182.369 79.5,182.5 Z"/></g>
<g><path style="opacity:1" fill="#0e072a" d="M 78.5,189.5 C 77.7703,191.045 76.437,191.878 74.5,192C 76.4406,192.743 78.2739,192.576 80,191.5C 81.0386,192.244 81.5386,193.244 81.5,194.5C 80.5837,194.018 79.5837,193.685 78.5,193.5C 72.5377,194.859 66.5377,196.026 60.5,197C 59.7476,197.671 59.4142,198.504 59.5,199.5C 58.1667,199.5 56.8333,199.5 55.5,199.5C 54.4639,197.609 54.4639,195.776 55.5,194C 63.2229,192.689 70.8896,191.189 78.5,189.5 Z"/></g>
<g><path style="opacity:1" fill="#91af54" d="M 64.5,167.5 C 65.5377,170.429 66.7043,173.429 68,176.5C 72.9347,179.718 76.4347,184.051 78.5,189.5C 70.8896,191.189 63.2229,192.689 55.5,194C 54.4639,195.776 54.4639,197.609 55.5,199.5C 54.8333,199.5 54.1667,199.5 53.5,199.5C 52.2702,197.703 51.6036,195.703 51.5,193.5C 54.1656,193.067 56.8323,192.567 59.5,192C 61.3333,191.5 62.5,190.333 63,188.5C 63.3879,189.428 64.0546,190.095 65,190.5C 68.5999,189.814 72.0999,188.814 75.5,187.5C 74.3717,186.738 73.2051,186.071 72,185.5C 68.3252,180.652 64.8252,175.652 61.5,170.5C 61.5241,164.28 61.3574,157.947 61,151.5C 59.951,149.893 58.451,149.227 56.5,149.5C 57.1364,158.565 56.4698,167.231 54.5,175.5C 55.3713,167.2 55.7047,158.867 55.5,150.5C 57.2789,148.656 59.6122,147.99 62.5,148.5C 62.3339,154.176 62.5006,159.843 63,165.5C 63.2784,166.416 63.7784,167.082 64.5,167.5 Z"/></g>
<g><path style="opacity:1" fill="#f4dcc4" d="M 81.5,194.5 C 81.366,196.292 81.6993,197.958 82.5,199.5C 74.8333,199.5 67.1667,199.5 59.5,199.5C 59.4142,198.504 59.7476,197.671 60.5,197C 66.5377,196.026 72.5377,194.859 78.5,193.5C 79.5837,193.685 80.5837,194.018 81.5,194.5 Z"/></g>
</svg>
